M48
; DRILL file {KiCad 7.0.7} date Tue Feb 27 11:48:35 2024
; FORMAT={-:-/ absolute / metric / decimal}
; #@! TF.CreationDate,2024-02-27T11:48:35-06:00
; #@! TF.GenerationSoftware,Kicad,Pcbnew,7.0.7
; #@! TF.FileFunction,Plated,1,2,PTH
FMAT,2
METRIC
; #@! TA.AperFunction,Plated,PTH,ViaDrill
T1C0.400
; #@! TA.AperFunction,Plated,PTH,ComponentDrill
T2C0.762
; #@! TA.AperFunction,Plated,PTH,ComponentDrill
T3C0.800
; #@! TA.AperFunction,Plated,PTH,ComponentDrill
T4C0.900
; #@! TA.AperFunction,Plated,PTH,ComponentDrill
T5C1.000
%
G90
G05
T1
X135.636Y-64.262
X137.922Y-64.989
X145.705Y-55.143
X153.924Y-84.328
X154.94Y-55.626
X155.956Y-85.054
X159.512Y-67.056
X163.322Y-70.612
X163.322Y-82.55
X163.322Y-101.092
X165.1Y-55.626
X168.91Y-62.773
X168.91Y-64.262
X170.942Y-93.726
X175.26Y-55.372
X181.102Y-94.742
X182.118Y-93.726
X185.42Y-55.626
X193.548Y-59.69
X195.326Y-55.372
X197.866Y-62.23
X197.866Y-75.184
X199.644Y-99.06
X200.406Y-54.102
X205.232Y-99.06
X211.074Y-72.898
T2
X143.51Y-60.96
X143.51Y-76.2
X146.05Y-60.96
X146.05Y-76.2
X148.59Y-60.96
X148.59Y-76.2
X151.13Y-60.96
X151.13Y-76.2
X153.67Y-60.96
X153.67Y-76.2
X156.21Y-60.96
X156.21Y-76.2
X158.75Y-60.96
X158.75Y-76.2
X161.29Y-60.96
X161.29Y-76.2
X163.83Y-60.96
X163.83Y-76.2
X166.37Y-60.96
X166.37Y-76.2
X168.91Y-60.96
X168.91Y-76.2
X171.45Y-60.96
X171.45Y-76.2
X173.99Y-60.96
X173.99Y-76.2
X176.53Y-60.96
X176.53Y-76.2
X200.048Y-62.23
X200.048Y-74.93
T3
X193.698Y-63.81
X193.698Y-67.31
T4
X120.65Y-48.895
X123.19Y-48.895
X130.175Y-55.88
X130.175Y-58.42
X130.175Y-60.96
X130.175Y-63.5
X130.175Y-66.04
X130.175Y-73.66
X130.175Y-76.2
X130.175Y-78.74
X130.175Y-81.28
X130.81Y-48.895
X133.35Y-48.895
X133.858Y-88.265
X136.398Y-88.265
X143.51Y-48.895
X146.05Y-48.895
X153.67Y-48.895
X156.21Y-48.895
X163.83Y-48.895
X166.37Y-48.895
X173.99Y-48.895
X176.53Y-48.895
X184.15Y-48.895
X186.69Y-48.895
X194.134Y-48.895
X196.674Y-48.895
X200.048Y-57.15
X200.048Y-59.69
X200.048Y-69.85
X200.048Y-72.39
X200.048Y-82.55
X200.048Y-85.09
X200.048Y-87.63
X200.048Y-90.17
T5
X172.72Y-86.36
X172.72Y-96.52
X175.26Y-86.36
X175.26Y-96.52
X177.8Y-86.36
X177.8Y-96.52
X185.43Y-97.15
X187.97Y-97.15
X190.51Y-97.15
T0
M30
