G04 #@! TF.GenerationSoftware,KiCad,Pcbnew,7.0.7*
G04 #@! TF.CreationDate,2024-02-27T11:48:22-06:00*
G04 #@! TF.ProjectId,ControlBoard_Hardware,436f6e74-726f-46c4-926f-6172645f4861,rev?*
G04 #@! TF.SameCoordinates,Original*
G04 #@! TF.FileFunction,Paste,Top*
G04 #@! TF.FilePolarity,Positive*
%FSLAX46Y46*%
G04 Gerber Fmt 4.6, Leading zero omitted, Abs format (unit mm)*
G04 Created by KiCad (PCBNEW 7.0.7) date 2024-02-27 11:48:22*
%MOMM*%
%LPD*%
G01*
G04 APERTURE LIST*
G04 Aperture macros list*
%AMRoundRect*
0 Rectangle with rounded corners*
0 $1 Rounding radius*
0 $2 $3 $4 $5 $6 $7 $8 $9 X,Y pos of 4 corners*
0 Add a 4 corners polygon primitive as box body*
4,1,4,$2,$3,$4,$5,$6,$7,$8,$9,$2,$3,0*
0 Add four circle primitives for the rounded corners*
1,1,$1+$1,$2,$3*
1,1,$1+$1,$4,$5*
1,1,$1+$1,$6,$7*
1,1,$1+$1,$8,$9*
0 Add four rect primitives between the rounded corners*
20,1,$1+$1,$2,$3,$4,$5,0*
20,1,$1+$1,$4,$5,$6,$7,0*
20,1,$1+$1,$6,$7,$8,$9,0*
20,1,$1+$1,$8,$9,$2,$3,0*%
G04 Aperture macros list end*
%ADD10RoundRect,0.237500X0.237500X-0.300000X0.237500X0.300000X-0.237500X0.300000X-0.237500X-0.300000X0*%
%ADD11RoundRect,0.150000X0.150000X-0.512500X0.150000X0.512500X-0.150000X0.512500X-0.150000X-0.512500X0*%
%ADD12RoundRect,0.237500X-0.287500X-0.237500X0.287500X-0.237500X0.287500X0.237500X-0.287500X0.237500X0*%
%ADD13RoundRect,0.237500X0.250000X0.237500X-0.250000X0.237500X-0.250000X-0.237500X0.250000X-0.237500X0*%
%ADD14RoundRect,0.237500X-0.250000X-0.237500X0.250000X-0.237500X0.250000X0.237500X-0.250000X0.237500X0*%
G04 APERTURE END LIST*
D10*
X148336000Y-54075500D03*
X148336000Y-52350500D03*
D11*
X152974000Y-53842500D03*
X153924000Y-53842500D03*
X154874000Y-53842500D03*
X154874000Y-51567500D03*
X152974000Y-51567500D03*
D12*
X157875000Y-90424000D03*
X159625000Y-90424000D03*
D13*
X163472500Y-90424000D03*
X161647500Y-90424000D03*
D12*
X157875000Y-87122000D03*
X159625000Y-87122000D03*
D13*
X163472500Y-83820000D03*
X161647500Y-83820000D03*
D10*
X197104000Y-54075500D03*
X197104000Y-52350500D03*
X178816000Y-54075500D03*
X178816000Y-52350500D03*
D13*
X163472500Y-93726000D03*
X161647500Y-93726000D03*
D10*
X198882000Y-54075500D03*
X198882000Y-52350500D03*
D11*
X173294000Y-53842500D03*
X174244000Y-53842500D03*
X175194000Y-53842500D03*
X175194000Y-51567500D03*
X173294000Y-51567500D03*
D10*
X146558000Y-54075500D03*
X146558000Y-52350500D03*
X187198000Y-54075500D03*
X187198000Y-52350500D03*
D11*
X142814000Y-53842500D03*
X143764000Y-53842500D03*
X144714000Y-53842500D03*
X144714000Y-51567500D03*
X142814000Y-51567500D03*
D10*
X168656000Y-54075500D03*
X168656000Y-52350500D03*
D14*
X195326000Y-59690000D03*
X197151000Y-59690000D03*
D10*
X158496000Y-54329500D03*
X158496000Y-52604500D03*
X156718000Y-54329500D03*
X156718000Y-52604500D03*
D12*
X157875000Y-83820000D03*
X159625000Y-83820000D03*
D11*
X183454000Y-53842500D03*
X184404000Y-53842500D03*
X185354000Y-53842500D03*
X185354000Y-51567500D03*
X183454000Y-51567500D03*
D10*
X188976000Y-54075500D03*
X188976000Y-52350500D03*
D12*
X157875000Y-93726000D03*
X159625000Y-93726000D03*
D10*
X177038000Y-54075500D03*
X177038000Y-52350500D03*
D12*
X157875000Y-97028000D03*
X159625000Y-97028000D03*
D13*
X163472500Y-87122000D03*
X161647500Y-87122000D03*
D11*
X163134000Y-53842500D03*
X164084000Y-53842500D03*
X165034000Y-53842500D03*
X165034000Y-51567500D03*
X163134000Y-51567500D03*
X193360000Y-53842500D03*
X194310000Y-53842500D03*
X195260000Y-53842500D03*
X195260000Y-51567500D03*
X193360000Y-51567500D03*
D13*
X163386500Y-97028000D03*
X161561500Y-97028000D03*
D10*
X166878000Y-54075500D03*
X166878000Y-52350500D03*
M02*
