G04 #@! TF.GenerationSoftware,KiCad,Pcbnew,7.0.7*
G04 #@! TF.CreationDate,2024-02-27T11:48:22-06:00*
G04 #@! TF.ProjectId,ControlBoard_Hardware,436f6e74-726f-46c4-926f-6172645f4861,rev?*
G04 #@! TF.SameCoordinates,Original*
G04 #@! TF.FileFunction,Soldermask,Bot*
G04 #@! TF.FilePolarity,Negative*
%FSLAX46Y46*%
G04 Gerber Fmt 4.6, Leading zero omitted, Abs format (unit mm)*
G04 Created by KiCad (PCBNEW 7.0.7) date 2024-02-27 11:48:22*
%MOMM*%
%LPD*%
G01*
G04 APERTURE LIST*
%ADD10C,3.450000*%
%ADD11C,1.524000*%
%ADD12R,1.800000X1.800000*%
%ADD13C,1.800000*%
%ADD14R,1.500000X2.500000*%
%ADD15O,1.500000X2.500000*%
%ADD16C,3.200000*%
%ADD17R,1.600000X1.600000*%
%ADD18C,1.600000*%
G04 APERTURE END LIST*
D10*
X172845000Y-40255000D03*
X177673000Y-40259000D03*
D11*
X173990000Y-48895000D03*
X176530000Y-48895000D03*
D10*
X121539000Y-82550000D03*
X121539000Y-72390000D03*
D11*
X130175000Y-81280000D03*
X130175000Y-78740000D03*
X130175000Y-76200000D03*
X130175000Y-73660000D03*
D10*
X183005000Y-40255000D03*
X187833000Y-40259000D03*
D11*
X184150000Y-48895000D03*
X186690000Y-48895000D03*
D10*
X208684500Y-68580000D03*
X208684500Y-76200000D03*
D11*
X200048500Y-69850000D03*
X200048500Y-72390000D03*
X200048500Y-74930000D03*
D12*
X190510000Y-97150000D03*
D13*
X187970000Y-97150000D03*
X185430000Y-97150000D03*
D10*
X162685000Y-40255000D03*
X167513000Y-40259000D03*
D11*
X163830000Y-48895000D03*
X166370000Y-48895000D03*
D10*
X129665000Y-40255000D03*
X134493000Y-40259000D03*
D11*
X130810000Y-48895000D03*
X133350000Y-48895000D03*
D10*
X208684500Y-81280000D03*
X208684500Y-91440000D03*
D11*
X200048500Y-82550000D03*
X200048500Y-85090000D03*
X200048500Y-87630000D03*
X200048500Y-90170000D03*
D14*
X172720000Y-96520000D03*
D15*
X175260000Y-96520000D03*
X177800000Y-96520000D03*
D10*
X119505000Y-40255000D03*
X124333000Y-40259000D03*
D11*
X120650000Y-48895000D03*
X123190000Y-48895000D03*
D14*
X172720000Y-86360000D03*
D15*
X175260000Y-86360000D03*
X177800000Y-86360000D03*
D10*
X142365000Y-40255000D03*
X147193000Y-40259000D03*
D11*
X143510000Y-48895000D03*
X146050000Y-48895000D03*
D16*
X120142000Y-98298000D03*
X210058000Y-98298000D03*
X210058000Y-38862000D03*
D10*
X208684500Y-55880000D03*
X208684500Y-63500000D03*
D11*
X200048500Y-57150000D03*
X200048500Y-59690000D03*
X200048500Y-62230000D03*
D10*
X192988698Y-40255000D03*
X197816698Y-40259000D03*
D11*
X194133698Y-48895000D03*
X196673698Y-48895000D03*
D10*
X121539000Y-67310000D03*
X121539000Y-54610000D03*
D11*
X130175000Y-66040000D03*
X130175000Y-63500000D03*
X130175000Y-60960000D03*
X130175000Y-58420000D03*
X130175000Y-55880000D03*
D17*
X193698500Y-63810000D03*
D18*
X193698500Y-67310000D03*
D10*
X137543000Y-96905000D03*
X132715000Y-96901000D03*
D11*
X136398000Y-88265000D03*
X133858000Y-88265000D03*
X146050000Y-76200000D03*
X148590000Y-76200000D03*
X151130000Y-76200000D03*
X153670000Y-76200000D03*
X156210000Y-76200000D03*
X158750000Y-76200000D03*
X161290000Y-76200000D03*
X163830000Y-76200000D03*
X166370000Y-76200000D03*
X168910000Y-76200000D03*
X171450000Y-76200000D03*
X173990000Y-76200000D03*
X176530000Y-76200000D03*
X176530000Y-60960000D03*
X173990000Y-60960000D03*
X171450000Y-60960000D03*
X168910000Y-60960000D03*
X166370000Y-60960000D03*
X163830000Y-60960000D03*
X161290000Y-60960000D03*
X158750000Y-60960000D03*
X156210000Y-60960000D03*
X153670000Y-60960000D03*
X151130000Y-60960000D03*
X143510000Y-76200000D03*
X146050000Y-60960000D03*
X148590000Y-60960000D03*
X143510000Y-60960000D03*
D10*
X152525000Y-40255000D03*
X157353000Y-40259000D03*
D11*
X153670000Y-48895000D03*
X156210000Y-48895000D03*
M02*
