G04 #@! TF.GenerationSoftware,KiCad,Pcbnew,7.0.7*
G04 #@! TF.CreationDate,2024-02-27T11:48:22-06:00*
G04 #@! TF.ProjectId,ControlBoard_Hardware,436f6e74-726f-46c4-926f-6172645f4861,rev?*
G04 #@! TF.SameCoordinates,Original*
G04 #@! TF.FileFunction,Soldermask,Top*
G04 #@! TF.FilePolarity,Negative*
%FSLAX46Y46*%
G04 Gerber Fmt 4.6, Leading zero omitted, Abs format (unit mm)*
G04 Created by KiCad (PCBNEW 7.0.7) date 2024-02-27 11:48:22*
%MOMM*%
%LPD*%
G01*
G04 APERTURE LIST*
G04 Aperture macros list*
%AMRoundRect*
0 Rectangle with rounded corners*
0 $1 Rounding radius*
0 $2 $3 $4 $5 $6 $7 $8 $9 X,Y pos of 4 corners*
0 Add a 4 corners polygon primitive as box body*
4,1,4,$2,$3,$4,$5,$6,$7,$8,$9,$2,$3,0*
0 Add four circle primitives for the rounded corners*
1,1,$1+$1,$2,$3*
1,1,$1+$1,$4,$5*
1,1,$1+$1,$6,$7*
1,1,$1+$1,$8,$9*
0 Add four rect primitives between the rounded corners*
20,1,$1+$1,$2,$3,$4,$5,0*
20,1,$1+$1,$4,$5,$6,$7,0*
20,1,$1+$1,$6,$7,$8,$9,0*
20,1,$1+$1,$8,$9,$2,$3,0*%
G04 Aperture macros list end*
%ADD10RoundRect,0.237500X0.237500X-0.300000X0.237500X0.300000X-0.237500X0.300000X-0.237500X-0.300000X0*%
%ADD11RoundRect,0.150000X0.150000X-0.512500X0.150000X0.512500X-0.150000X0.512500X-0.150000X-0.512500X0*%
%ADD12C,3.450000*%
%ADD13C,1.524000*%
%ADD14RoundRect,0.237500X-0.287500X-0.237500X0.287500X-0.237500X0.287500X0.237500X-0.287500X0.237500X0*%
%ADD15RoundRect,0.237500X0.250000X0.237500X-0.250000X0.237500X-0.250000X-0.237500X0.250000X-0.237500X0*%
%ADD16R,1.800000X1.800000*%
%ADD17C,1.800000*%
%ADD18R,1.500000X2.500000*%
%ADD19O,1.500000X2.500000*%
%ADD20RoundRect,0.237500X-0.250000X-0.237500X0.250000X-0.237500X0.250000X0.237500X-0.250000X0.237500X0*%
%ADD21C,3.200000*%
%ADD22R,1.600000X1.600000*%
%ADD23C,1.600000*%
G04 APERTURE END LIST*
D10*
X148336000Y-54075500D03*
X148336000Y-52350500D03*
D11*
X152974000Y-53842500D03*
X153924000Y-53842500D03*
X154874000Y-53842500D03*
X154874000Y-51567500D03*
X152974000Y-51567500D03*
D12*
X172845000Y-40255000D03*
X177673000Y-40259000D03*
D13*
X173990000Y-48895000D03*
X176530000Y-48895000D03*
D14*
X157875000Y-90424000D03*
X159625000Y-90424000D03*
D12*
X121539000Y-82550000D03*
X121539000Y-72390000D03*
D13*
X130175000Y-81280000D03*
X130175000Y-78740000D03*
X130175000Y-76200000D03*
X130175000Y-73660000D03*
D15*
X163472500Y-90424000D03*
X161647500Y-90424000D03*
D12*
X183005000Y-40255000D03*
X187833000Y-40259000D03*
D13*
X184150000Y-48895000D03*
X186690000Y-48895000D03*
D14*
X157875000Y-87122000D03*
X159625000Y-87122000D03*
D12*
X208684500Y-68580000D03*
X208684500Y-76200000D03*
D13*
X200048500Y-69850000D03*
X200048500Y-72390000D03*
X200048500Y-74930000D03*
D15*
X163472500Y-83820000D03*
X161647500Y-83820000D03*
D10*
X197104000Y-54075500D03*
X197104000Y-52350500D03*
X178816000Y-54075500D03*
X178816000Y-52350500D03*
D16*
X190510000Y-97150000D03*
D17*
X187970000Y-97150000D03*
X185430000Y-97150000D03*
D15*
X163472500Y-93726000D03*
X161647500Y-93726000D03*
D10*
X198882000Y-54075500D03*
X198882000Y-52350500D03*
D12*
X162685000Y-40255000D03*
X167513000Y-40259000D03*
D13*
X163830000Y-48895000D03*
X166370000Y-48895000D03*
D12*
X129665000Y-40255000D03*
X134493000Y-40259000D03*
D13*
X130810000Y-48895000D03*
X133350000Y-48895000D03*
D11*
X173294000Y-53842500D03*
X174244000Y-53842500D03*
X175194000Y-53842500D03*
X175194000Y-51567500D03*
X173294000Y-51567500D03*
D12*
X208684500Y-81280000D03*
X208684500Y-91440000D03*
D13*
X200048500Y-82550000D03*
X200048500Y-85090000D03*
X200048500Y-87630000D03*
X200048500Y-90170000D03*
D10*
X146558000Y-54075500D03*
X146558000Y-52350500D03*
D18*
X172720000Y-96520000D03*
D19*
X175260000Y-96520000D03*
X177800000Y-96520000D03*
D10*
X187198000Y-54075500D03*
X187198000Y-52350500D03*
D11*
X142814000Y-53842500D03*
X143764000Y-53842500D03*
X144714000Y-53842500D03*
X144714000Y-51567500D03*
X142814000Y-51567500D03*
D10*
X168656000Y-54075500D03*
X168656000Y-52350500D03*
D12*
X119505000Y-40255000D03*
X124333000Y-40259000D03*
D13*
X120650000Y-48895000D03*
X123190000Y-48895000D03*
D18*
X172720000Y-86360000D03*
D19*
X175260000Y-86360000D03*
X177800000Y-86360000D03*
D12*
X142365000Y-40255000D03*
X147193000Y-40259000D03*
D13*
X143510000Y-48895000D03*
X146050000Y-48895000D03*
D20*
X195326000Y-59690000D03*
X197151000Y-59690000D03*
D21*
X120142000Y-98298000D03*
X210058000Y-98298000D03*
D10*
X158496000Y-54329500D03*
X158496000Y-52604500D03*
X156718000Y-54329500D03*
X156718000Y-52604500D03*
D14*
X157875000Y-83820000D03*
X159625000Y-83820000D03*
D11*
X183454000Y-53842500D03*
X184404000Y-53842500D03*
X185354000Y-53842500D03*
X185354000Y-51567500D03*
X183454000Y-51567500D03*
D10*
X188976000Y-54075500D03*
X188976000Y-52350500D03*
D14*
X157875000Y-93726000D03*
X159625000Y-93726000D03*
D10*
X177038000Y-54075500D03*
X177038000Y-52350500D03*
D14*
X157875000Y-97028000D03*
X159625000Y-97028000D03*
D21*
X210058000Y-38862000D03*
D15*
X163472500Y-87122000D03*
X161647500Y-87122000D03*
D12*
X208684500Y-55880000D03*
X208684500Y-63500000D03*
D13*
X200048500Y-57150000D03*
X200048500Y-59690000D03*
X200048500Y-62230000D03*
D12*
X192988698Y-40255000D03*
X197816698Y-40259000D03*
D13*
X194133698Y-48895000D03*
X196673698Y-48895000D03*
D12*
X121539000Y-67310000D03*
X121539000Y-54610000D03*
D13*
X130175000Y-66040000D03*
X130175000Y-63500000D03*
X130175000Y-60960000D03*
X130175000Y-58420000D03*
X130175000Y-55880000D03*
D11*
X163134000Y-53842500D03*
X164084000Y-53842500D03*
X165034000Y-53842500D03*
X165034000Y-51567500D03*
X163134000Y-51567500D03*
X193360000Y-53842500D03*
X194310000Y-53842500D03*
X195260000Y-53842500D03*
X195260000Y-51567500D03*
X193360000Y-51567500D03*
D22*
X193698500Y-63810000D03*
D23*
X193698500Y-67310000D03*
D12*
X137543000Y-96905000D03*
X132715000Y-96901000D03*
D13*
X136398000Y-88265000D03*
X133858000Y-88265000D03*
X146050000Y-76200000D03*
X148590000Y-76200000D03*
X151130000Y-76200000D03*
X153670000Y-76200000D03*
X156210000Y-76200000D03*
X158750000Y-76200000D03*
X161290000Y-76200000D03*
X163830000Y-76200000D03*
X166370000Y-76200000D03*
X168910000Y-76200000D03*
X171450000Y-76200000D03*
X173990000Y-76200000D03*
X176530000Y-76200000D03*
X176530000Y-60960000D03*
X173990000Y-60960000D03*
X171450000Y-60960000D03*
X168910000Y-60960000D03*
X166370000Y-60960000D03*
X163830000Y-60960000D03*
X161290000Y-60960000D03*
X158750000Y-60960000D03*
X156210000Y-60960000D03*
X153670000Y-60960000D03*
X151130000Y-60960000D03*
X143510000Y-76200000D03*
X146050000Y-60960000D03*
X148590000Y-60960000D03*
X143510000Y-60960000D03*
D15*
X163386500Y-97028000D03*
X161561500Y-97028000D03*
D12*
X152525000Y-40255000D03*
X157353000Y-40259000D03*
D13*
X153670000Y-48895000D03*
X156210000Y-48895000D03*
D10*
X166878000Y-54075500D03*
X166878000Y-52350500D03*
M02*
