M48
; DRILL file {KiCad 7.0.7} date Tue Feb 27 11:48:35 2024
; FORMAT={-:-/ absolute / metric / decimal}
; #@! TF.CreationDate,2024-02-27T11:48:35-06:00
; #@! TF.GenerationSoftware,Kicad,Pcbnew,7.0.7
; #@! TF.FileFunction,NonPlated,1,2,NPTH
FMAT,2
METRIC
; #@! TA.AperFunction,NonPlated,NPTH,ComponentDrill
T1C3.200
; #@! TA.AperFunction,NonPlated,NPTH,ComponentDrill
T2C3.450
%
G90
G05
T1
X120.142Y-98.298
X210.058Y-38.862
X210.058Y-98.298
T2
X119.505Y-40.255
X121.539Y-54.61
X121.539Y-67.31
X121.539Y-72.39
X121.539Y-82.55
X124.333Y-40.259
X129.665Y-40.255
X132.715Y-96.901
X134.493Y-40.259
X137.543Y-96.905
X142.365Y-40.255
X147.193Y-40.259
X152.525Y-40.255
X157.353Y-40.259
X162.685Y-40.255
X167.513Y-40.259
X172.845Y-40.255
X177.673Y-40.259
X183.005Y-40.255
X187.833Y-40.259
X192.989Y-40.255
X197.817Y-40.259
X208.684Y-55.88
X208.684Y-63.5
X208.684Y-68.58
X208.684Y-76.2
X208.684Y-81.28
X208.684Y-91.44
T0
M30
